<mxfile host="app.diagrams.net" agent="Mozilla/5.0 (Windows NT 10.0; Win64; x64) AppleWebKit/537.36 (KHTML, like Gecko) Chrome/128.0.0.0 Safari/537.36" version="24.7.14">
  <diagram name="Page-1" id="iBRlb1mhVoszrk2-aHQL">
    <mxGraphModel dx="2074" dy="725" grid="1" gridSize="10" guides="1" tooltips="1" connect="1" arrows="1" fold="1" page="1" pageScale="1" pageWidth="850" pageHeight="1100" math="0" shadow="0">
      <root>
        <mxCell id="0" />
        <mxCell id="1" parent="0" />
        <mxCell id="-mjvh53arfqLqoCf8BJp-1" value="Actor" style="shape=umlActor;verticalLabelPosition=bottom;verticalAlign=top;html=1;outlineConnect=0;fillColor=#EA6B66;" parent="1" vertex="1">
          <mxGeometry x="410" y="180" width="30" height="60" as="geometry" />
        </mxCell>
        <mxCell id="_Eg-LZfy4czVI2hD-TEB-29" value="" style="rounded=0;whiteSpace=wrap;html=1;dashed=1;strokeColor=#EA6B66;" parent="1" vertex="1">
          <mxGeometry x="120" y="330" width="650" height="180" as="geometry" />
        </mxCell>
        <mxCell id="-mjvh53arfqLqoCf8BJp-2" value="To-Do App User" style="text;html=1;align=center;verticalAlign=middle;whiteSpace=wrap;rounded=0;" parent="1" vertex="1">
          <mxGeometry x="395" y="150" width="60" height="30" as="geometry" />
        </mxCell>
        <mxCell id="-mjvh53arfqLqoCf8BJp-7" value="" style="endArrow=classic;html=1;rounded=0;entryX=0.5;entryY=0;entryDx=0;entryDy=0;exitX=1;exitY=1;exitDx=0;exitDy=0;" parent="1" source="-mjvh53arfqLqoCf8BJp-14" target="_Eg-LZfy4czVI2hD-TEB-1" edge="1">
          <mxGeometry width="50" height="50" relative="1" as="geometry">
            <mxPoint x="425" y="260" as="sourcePoint" />
            <mxPoint x="630" y="395" as="targetPoint" />
          </mxGeometry>
        </mxCell>
        <mxCell id="-mjvh53arfqLqoCf8BJp-13" value="" style="endArrow=classic;html=1;rounded=0;" parent="1" source="-mjvh53arfqLqoCf8BJp-1" edge="1">
          <mxGeometry width="50" height="50" relative="1" as="geometry">
            <mxPoint x="425" y="240" as="sourcePoint" />
            <mxPoint x="520" y="280" as="targetPoint" />
          </mxGeometry>
        </mxCell>
        <mxCell id="-mjvh53arfqLqoCf8BJp-14" value="Views, adds, and changes the status of to-do items using" style="text;html=1;align=center;verticalAlign=middle;whiteSpace=wrap;rounded=0;fontSize=8;" parent="1" vertex="1">
          <mxGeometry x="500" y="290" width="60" height="30" as="geometry" />
        </mxCell>
        <mxCell id="-mjvh53arfqLqoCf8BJp-18" value="" style="rounded=0;whiteSpace=wrap;html=1;fillColor=#CCCCCC;" parent="1" vertex="1">
          <mxGeometry x="335" y="560" width="180" height="90" as="geometry" />
        </mxCell>
        <mxCell id="-mjvh53arfqLqoCf8BJp-19" value="Stores to-do items and their statuses" style="text;html=1;align=center;verticalAlign=middle;whiteSpace=wrap;rounded=0;fontSize=10;" parent="1" vertex="1">
          <mxGeometry x="365.5" y="600" width="120" height="30" as="geometry" />
        </mxCell>
        <mxCell id="-mjvh53arfqLqoCf8BJp-20" value="Trello [Software System]" style="text;html=1;align=center;verticalAlign=middle;whiteSpace=wrap;rounded=0;" parent="1" vertex="1">
          <mxGeometry x="373" y="560" width="105" height="30" as="geometry" />
        </mxCell>
        <mxCell id="-mjvh53arfqLqoCf8BJp-21" value="" style="endArrow=classic;html=1;rounded=0;exitX=0.5;exitY=1;exitDx=0;exitDy=0;entryX=0.5;entryY=0;entryDx=0;entryDy=0;" parent="1" source="-mjvh53arfqLqoCf8BJp-23" target="-mjvh53arfqLqoCf8BJp-20" edge="1">
          <mxGeometry width="50" height="50" relative="1" as="geometry">
            <mxPoint x="390" y="540" as="sourcePoint" />
            <mxPoint x="425" y="510" as="targetPoint" />
          </mxGeometry>
        </mxCell>
        <mxCell id="-mjvh53arfqLqoCf8BJp-22" value="" style="endArrow=classic;html=1;rounded=0;exitX=0.5;exitY=1;exitDx=0;exitDy=0;entryX=0.5;entryY=0;entryDx=0;entryDy=0;" parent="1" source="_Eg-LZfy4czVI2hD-TEB-10" target="-mjvh53arfqLqoCf8BJp-23" edge="1">
          <mxGeometry width="50" height="50" relative="1" as="geometry">
            <mxPoint x="425" y="450" as="sourcePoint" />
            <mxPoint x="426" y="560" as="targetPoint" />
          </mxGeometry>
        </mxCell>
        <mxCell id="-mjvh53arfqLqoCf8BJp-23" value="Stores and retrieves to-do items using" style="text;html=1;align=center;verticalAlign=middle;whiteSpace=wrap;rounded=0;fontSize=8;" parent="1" vertex="1">
          <mxGeometry x="313" y="500" width="60" height="30" as="geometry" />
        </mxCell>
        <mxCell id="-mjvh53arfqLqoCf8BJp-24" value="Container" style="rounded=0;whiteSpace=wrap;html=1;fillColor=#EA6B66;" parent="1" vertex="1">
          <mxGeometry x="195" y="980" width="120" height="60" as="geometry" />
        </mxCell>
        <mxCell id="-mjvh53arfqLqoCf8BJp-25" value="Software System, Existing System" style="rounded=0;whiteSpace=wrap;html=1;fillColor=#CCCCCC;" parent="1" vertex="1">
          <mxGeometry x="480" y="980" width="120" height="60" as="geometry" />
        </mxCell>
        <mxCell id="-mjvh53arfqLqoCf8BJp-26" value="Actor" style="shape=umlActor;verticalLabelPosition=bottom;verticalAlign=top;html=1;outlineConnect=0;" parent="1" vertex="1">
          <mxGeometry x="130" y="980" width="30" height="60" as="geometry" />
        </mxCell>
        <mxCell id="-mjvh53arfqLqoCf8BJp-27" value="" style="endArrow=classic;html=1;rounded=0;" parent="1" source="-mjvh53arfqLqoCf8BJp-37" edge="1">
          <mxGeometry width="50" height="50" relative="1" as="geometry">
            <mxPoint x="630" y="1009.47" as="sourcePoint" />
            <mxPoint x="770" y="1010" as="targetPoint" />
          </mxGeometry>
        </mxCell>
        <mxCell id="-mjvh53arfqLqoCf8BJp-36" value="" style="endArrow=classic;html=1;rounded=0;" parent="1" target="-mjvh53arfqLqoCf8BJp-37" edge="1">
          <mxGeometry width="50" height="50" relative="1" as="geometry">
            <mxPoint x="630" y="1009.47" as="sourcePoint" />
            <mxPoint x="770" y="1010" as="targetPoint" />
          </mxGeometry>
        </mxCell>
        <mxCell id="-mjvh53arfqLqoCf8BJp-37" value="Relationship" style="text;html=1;align=center;verticalAlign=middle;whiteSpace=wrap;rounded=0;fontSize=8;" parent="1" vertex="1">
          <mxGeometry x="670" y="995" width="60" height="30" as="geometry" />
        </mxCell>
        <mxCell id="-mjvh53arfqLqoCf8BJp-38" value="Diagram key" style="text;html=1;align=center;verticalAlign=middle;whiteSpace=wrap;rounded=0;fontSize=18;" parent="1" vertex="1">
          <mxGeometry x="230" y="920" width="110" height="30" as="geometry" />
        </mxCell>
        <mxCell id="_Eg-LZfy4czVI2hD-TEB-1" value="Multi-page application" style="swimlane;whiteSpace=wrap;html=1;fillColor=#EA6B66;" parent="1" vertex="1">
          <mxGeometry x="520" y="360" width="200" height="100" as="geometry" />
        </mxCell>
        <mxCell id="-mjvh53arfqLqoCf8BJp-6" value="Allows users to view, add, or change the status of to-do items" style="text;html=1;align=center;verticalAlign=middle;whiteSpace=wrap;rounded=0;fontSize=10;" parent="_Eg-LZfy4czVI2hD-TEB-1" vertex="1">
          <mxGeometry x="39.5" y="60" width="120" height="30" as="geometry" />
        </mxCell>
        <mxCell id="_Eg-LZfy4czVI2hD-TEB-2" value="[Container: HTML]&amp;nbsp;" style="text;html=1;align=center;verticalAlign=middle;whiteSpace=wrap;rounded=0;" parent="_Eg-LZfy4czVI2hD-TEB-1" vertex="1">
          <mxGeometry x="44.75" y="20" width="110.5" height="30" as="geometry" />
        </mxCell>
        <mxCell id="_Eg-LZfy4czVI2hD-TEB-22" style="edgeStyle=orthogonalEdgeStyle;rounded=0;orthogonalLoop=1;jettySize=auto;html=1;exitX=1;exitY=0.5;exitDx=0;exitDy=0;entryX=0;entryY=0.25;entryDx=0;entryDy=0;" parent="1" source="_Eg-LZfy4czVI2hD-TEB-24" target="_Eg-LZfy4czVI2hD-TEB-1" edge="1">
          <mxGeometry relative="1" as="geometry" />
        </mxCell>
        <mxCell id="_Eg-LZfy4czVI2hD-TEB-10" value="" style="rounded=0;whiteSpace=wrap;html=1;fillColor=#EA6B66;" parent="1" vertex="1">
          <mxGeometry x="180" y="360" width="180" height="90" as="geometry" />
        </mxCell>
        <mxCell id="_Eg-LZfy4czVI2hD-TEB-11" value="Renders HTML pages and makes API requests to Trello" style="text;html=1;align=center;verticalAlign=middle;whiteSpace=wrap;rounded=0;fontSize=10;" parent="1" vertex="1">
          <mxGeometry x="210.5" y="400" width="120" height="30" as="geometry" />
        </mxCell>
        <mxCell id="_Eg-LZfy4czVI2hD-TEB-12" value="Web Server [Container: Flask]" style="text;html=1;align=center;verticalAlign=middle;whiteSpace=wrap;rounded=0;" parent="1" vertex="1">
          <mxGeometry x="218" y="360" width="105" height="30" as="geometry" />
        </mxCell>
        <mxCell id="_Eg-LZfy4czVI2hD-TEB-16" value="" style="endArrow=classic;html=1;rounded=0;entryX=0.5;entryY=0;entryDx=0;entryDy=0;" parent="1" source="_Eg-LZfy4czVI2hD-TEB-17" target="_Eg-LZfy4czVI2hD-TEB-12" edge="1">
          <mxGeometry width="50" height="50" relative="1" as="geometry">
            <mxPoint x="330" y="270" as="sourcePoint" />
            <mxPoint x="380" y="220" as="targetPoint" />
          </mxGeometry>
        </mxCell>
        <mxCell id="_Eg-LZfy4czVI2hD-TEB-18" value="" style="endArrow=classic;html=1;rounded=0;entryX=0.5;entryY=0;entryDx=0;entryDy=0;" parent="1" source="-mjvh53arfqLqoCf8BJp-1" target="_Eg-LZfy4czVI2hD-TEB-17" edge="1">
          <mxGeometry width="50" height="50" relative="1" as="geometry">
            <mxPoint x="410" y="227" as="sourcePoint" />
            <mxPoint x="293" y="360" as="targetPoint" />
          </mxGeometry>
        </mxCell>
        <mxCell id="_Eg-LZfy4czVI2hD-TEB-17" value="Visits index page using [HTTPS]" style="text;html=1;align=center;verticalAlign=middle;whiteSpace=wrap;rounded=0;fontSize=8;" parent="1" vertex="1">
          <mxGeometry x="325" y="270" width="60" height="30" as="geometry" />
        </mxCell>
        <mxCell id="_Eg-LZfy4czVI2hD-TEB-23" value="" style="edgeStyle=orthogonalEdgeStyle;rounded=0;orthogonalLoop=1;jettySize=auto;html=1;exitX=1;exitY=0.25;exitDx=0;exitDy=0;entryX=0;entryY=0.5;entryDx=0;entryDy=0;" parent="1" source="_Eg-LZfy4czVI2hD-TEB-10" target="_Eg-LZfy4czVI2hD-TEB-24" edge="1">
          <mxGeometry relative="1" as="geometry">
            <mxPoint x="360" y="405" as="sourcePoint" />
            <mxPoint x="520" y="410" as="targetPoint" />
          </mxGeometry>
        </mxCell>
        <mxCell id="_Eg-LZfy4czVI2hD-TEB-24" value="Delivers to the user&#39;s web browser" style="text;html=1;align=center;verticalAlign=middle;whiteSpace=wrap;rounded=0;fontSize=8;" parent="1" vertex="1">
          <mxGeometry x="410" y="360" width="60" height="30" as="geometry" />
        </mxCell>
        <mxCell id="_Eg-LZfy4czVI2hD-TEB-25" value="" style="endArrow=classic;html=1;rounded=0;exitX=0;exitY=0.75;exitDx=0;exitDy=0;entryX=1;entryY=0.75;entryDx=0;entryDy=0;" parent="1" source="_Eg-LZfy4czVI2hD-TEB-1" target="_Eg-LZfy4czVI2hD-TEB-27" edge="1">
          <mxGeometry width="50" height="50" relative="1" as="geometry">
            <mxPoint x="490" y="430" as="sourcePoint" />
            <mxPoint x="500" y="430" as="targetPoint" />
          </mxGeometry>
        </mxCell>
        <mxCell id="_Eg-LZfy4czVI2hD-TEB-26" value="" style="endArrow=classic;html=1;rounded=0;exitX=0;exitY=0.75;exitDx=0;exitDy=0;entryX=1;entryY=0.75;entryDx=0;entryDy=0;" parent="1" source="_Eg-LZfy4czVI2hD-TEB-27" target="_Eg-LZfy4czVI2hD-TEB-10" edge="1">
          <mxGeometry width="50" height="50" relative="1" as="geometry">
            <mxPoint x="360" y="428" as="sourcePoint" />
            <mxPoint x="390" y="450" as="targetPoint" />
          </mxGeometry>
        </mxCell>
        <mxCell id="_Eg-LZfy4czVI2hD-TEB-27" value="Makes requests to using [HTTPS]" style="text;html=1;align=center;verticalAlign=middle;whiteSpace=wrap;rounded=0;fontSize=8;" parent="1" vertex="1">
          <mxGeometry x="410" y="415" width="60" height="30" as="geometry" />
        </mxCell>
        <mxCell id="_Eg-LZfy4czVI2hD-TEB-30" value="To-Do App&lt;div&gt;[Software System]&lt;/div&gt;" style="text;html=1;align=left;verticalAlign=middle;whiteSpace=wrap;rounded=0;" parent="1" vertex="1">
          <mxGeometry x="120" y="470" width="60" height="30" as="geometry" />
        </mxCell>
        <mxCell id="C0w9gF9tWYopERiPClLl-1" value="Container, Web Browser" style="swimlane;whiteSpace=wrap;html=1;fillColor=#EA6B66;strokeColor=#b85450;" parent="1" vertex="1">
          <mxGeometry x="335" y="980" width="120" height="60" as="geometry" />
        </mxCell>
      </root>
    </mxGraphModel>
  </diagram>
</mxfile>
